<svg width="128" height="128" viewBox="0 0 128 128" xmlns="http://www.w3.org/2000/svg">
    <defs>
        <linearGradient id="grad1" x1="0%" y1="0%" x2="100%" y2="100%">
            <stop offset="0%" style="stop-color:#4F46E5;stop-opacity:1" />
            <stop offset="100%" style="stop-color:#10B981;stop-opacity:1" />
        </linearGradient>
    </defs>
    <path fill="url(#grad1)" d="M64 2C30.2 2 2 30.2 2 64s28.2 62 62 62 62-28.2 62-62S97.8 2 64 2zm31.4 83.1c-5.5 5.5-12.8 8.7-20.8 8.7s-15.3-3.2-20.8-8.7c-1.2-1.2-1.2-3.1 0-4.2 1.2-1.2 3.1-1.2 4.2 0 4.3 4.3 10 6.7 16.6 6.7s12.3-2.4 16.6-6.7c1.2-1.2 3.1-1.2 4.2 0 1.2 1.1 1.2 3 0 4.2zM43.4 46.1c5.5-5.5 12.8-8.7-20.8-8.7s15.3 3.2 20.8 8.7c1.2 1.2 1.2 3.1 0 4.2-1.2 1.2-3.1 1.2-4.2 0-4.3-4.3-10-6.7-16.6-6.7s-12.3-2.4-16.6 6.7c-1.2 1.2-3.1 1.2-4.2 0-1.2-1.2-1.2-3.1 0-4.2z"/>
</svg>